<?xml version="1.0" encoding="UTF-8" standalone="no"?>
<svg
   xmlns:dc="http://purl.org/dc/elements/1.1/"
   xmlns:cc="http://creativecommons.org/ns#"
   xmlns:rdf="http://www.w3.org/1999/02/22-rdf-syntax-ns#"
   xmlns:svg="http://www.w3.org/2000/svg"
   xmlns="http://www.w3.org/2000/svg"
   xmlns:sodipodi="http://sodipodi.sourceforge.net/DTD/sodipodi-0.dtd"
   xmlns:inkscape="http://www.inkscape.org/namespaces/inkscape"
   width="95.999825mm"
   height="96.000336mm"
   viewBox="0 0 95.999825 96.000336"
   version="1.1"
   id="svg16"
   inkscape:version="1.0.1 (1.0.1+r73)"
   sodipodi:docname="info.svg">
  <defs
     id="defs10" />
  <sodipodi:namedview
     id="base"
     pagecolor="#ffffff"
     bordercolor="#666666"
     borderopacity="1.0"
     inkscape:pageopacity="0.0"
     inkscape:pageshadow="2"
     inkscape:zoom="0.8117387"
     inkscape:cx="383.73296"
     inkscape:cy="284.85475"
     inkscape:document-units="mm"
     inkscape:current-layer="layer1"
     inkscape:document-rotation="0"
     showgrid="false"
     inkscape:window-width="1439"
     inkscape:window-height="921"
     inkscape:window-x="82"
     inkscape:window-y="645"
     inkscape:window-maximized="0"
     inkscape:snap-tangential="true"
     inkscape:snap-path-clip="true"
     inkscape:snap-perpendicular="true"
     objecttolerance="20"
     inkscape:snap-nodes="true"
     inkscape:snap-bbox="false"
     inkscape:object-paths="true"
     fit-margin-top="0"
     fit-margin-left="0"
     fit-margin-right="0"
     fit-margin-bottom="0" />
  <metadata
     id="metadata13">
    <rdf:RDF>
      <cc:Work
         rdf:about="">
        <dc:format>image/svg+xml</dc:format>
        <dc:type
           rdf:resource="http://purl.org/dc/dcmitype/StillImage" />
        <dc:title></dc:title>
      </cc:Work>
    </rdf:RDF>
  </metadata>
  <g
     inkscape:label="Layer 1"
     inkscape:groupmode="layer"
     id="layer1"
     transform="translate(-1.9147918,-2.0766387)">
    <path
       id="path39"
       style="fill:#000000;fill-opacity:1;fill-rule:evenodd;stroke-width:0.264483"
       d="M 49.914447,2.0766387 C 23.404845,2.0768292 1.9146966,23.567208 1.9147918,50.076809 1.9146992,76.586408 23.404848,98.076787 49.914447,98.076977 76.424246,98.077073 97.91471,76.586609 97.914617,50.076809 97.914712,23.567007 76.424249,2.0765435 49.914447,2.0766387 Z m 0,8.0000263 c 22.091501,-7.9e-5 40.000221,17.908643 40.000141,40.000144 8e-5,22.091502 -17.90864,40.000221 -40.000141,40.000142 C 27.823146,90.076745 9.9147414,72.16811 9.9148207,50.076809 9.9147414,27.985509 27.823146,10.076871 49.914447,10.076665 Z"
       sodipodi:nodetypes="cccccccccc" />
    <circle
       style="fill:#000000;fill-opacity:1;stroke:none;stroke-width:0.219574;stroke-opacity:1"
       id="path970"
       cx="49.914654"
       cy="27.909746"
       r="4.5" />
    <path
       id="path970-7"
       style="fill:#000000;fill-opacity:1;stroke:none;stroke-width:0.219574;stroke-opacity:1"
       d="m 49.911346,38.282695 a 4.4999999,4.4999999 0 0 0 -4.496882,4.499986 4.4999999,4.4999999 0 0 0 0,0.0036 V 71.98553 a 4.4999999,4.4999999 0 0 0 4.499983,4.500502 4.4999999,4.4999999 0 0 0 4.499983,-4.500502 4.4999999,4.4999999 0 0 0 0,-0.0031 V 42.782681 a 4.4999999,4.4999999 0 0 0 -4.499983,-4.499986 4.4999999,4.4999999 0 0 0 -0.0031,0 z" />
  </g>
</svg>
