<svg width="96mm" height="96mm" version="1.1" viewBox="0 0 96 96" xmlns="http://www.w3.org/2000/svg">
 <g transform="translate(-57 -100.5)">
  <path transform="scale(.26458)" d="m396.85 379.84c-100.19 7.2e-4 -181.42 81.224-181.42 181.42-3.5e-4 100.19 81.222 181.42 181.42 181.42 100.19 3.6e-4 181.42-81.223 181.42-181.42 3.6e-4 -100.19-81.223-181.42-181.42-181.42zm0 30.236c83.495-3e-4 151.18 67.686 151.18 151.18 3e-4 83.495-67.686 151.18-151.18 151.18-83.495-7.8e-4 -151.18-67.687-151.18-151.18-3e-4 -83.495 67.685-151.18 151.18-151.18z" style="fill-rule:evenodd;stroke-width:.99962"/>
  <path transform="scale(.26458)" d="m455.71 485.18c-4.5161 4e-3 -8.8453 1.8032-12.033 5.002l-0.0762 0.0781c-0.0137 0.0136-0.0274 0.0273-0.041 0.041l-46.754 46.908-46.887-46.734-0.11524-0.11523c-3.1898-3.1914-7.5171-4.9844-12.029-4.9844-9.3931 3e-5 -17.008 7.6147-17.008 17.008 4.9e-4 4.5259 1.8048 8.8649 5.0137 12.057v2e-3c0.0318 0.0314 0.0637 0.0626 0.0957 0.0937l46.918 46.764-46.734 46.889-0.11523 0.11523c-3.1914 3.1898-4.9844 7.5171-4.9844 12.029 4e-5 9.3931 7.6147 17.008 17.008 17.008 4.5259-4.9e-4 8.8649-1.8048 12.057-5.0137h2e-3c0.0314-0.0318 0.0626-0.0637 0.0937-0.0957l46.766-46.918 47.023 46.869v2e-3c3.1884 3.1775 7.5064 4.9615 12.008 4.9609 9.3931-4e-5 17.008-7.6147 17.008-17.008v-0.0117c-4e-3 -4.5161-1.8032-8.8453-5.002-12.033l-0.0762-0.0762c-0.0136-0.0137-0.0273-0.0274-0.041-0.041l-46.908-46.754 46.869-47.023h2e-3c3.1775-3.1884 4.9615-7.5064 4.9609-12.008-4e-5 -9.3931-7.6147-17.008-17.008-17.008h-0.01z" style="stroke-width:.94802"/>
  <ellipse id="background" cx="105" cy="148.44" rx="41.442" ry="41.126" style="fill-opacity:0;stroke-width:.25488"/>
 </g>
</svg>
