<?xml version="1.0" encoding="UTF-8" standalone="no"?>
<svg
   xmlns:dc="http://purl.org/dc/elements/1.1/"
   xmlns:cc="http://creativecommons.org/ns#"
   xmlns:rdf="http://www.w3.org/1999/02/22-rdf-syntax-ns#"
   xmlns:svg="http://www.w3.org/2000/svg"
   xmlns="http://www.w3.org/2000/svg"
   xmlns:sodipodi="http://sodipodi.sourceforge.net/DTD/sodipodi-0.dtd"
   xmlns:inkscape="http://www.inkscape.org/namespaces/inkscape"
   width="95.999817mm"
   height="96.000336mm"
   viewBox="0 0 95.999817 96.000336"
   version="1.1"
   id="svg16"
   inkscape:version="1.0.1 (1.0.1+r73)"
   sodipodi:docname="gather_one.svg">
  <defs
     id="defs10" />
  <sodipodi:namedview
     id="base"
     pagecolor="#ffffff"
     bordercolor="#666666"
     borderopacity="1.0"
     inkscape:pageopacity="0.0"
     inkscape:pageshadow="2"
     inkscape:zoom="1.0076756"
     inkscape:cx="383.91055"
     inkscape:cy="290.07884"
     inkscape:document-units="mm"
     inkscape:current-layer="layer1"
     inkscape:document-rotation="0"
     showgrid="false"
     inkscape:window-width="1439"
     inkscape:window-height="921"
     inkscape:window-x="190"
     inkscape:window-y="283"
     inkscape:window-maximized="0"
     inkscape:snap-tangential="true"
     inkscape:snap-path-clip="true"
     inkscape:snap-perpendicular="true"
     objecttolerance="20"
     inkscape:snap-nodes="true"
     inkscape:snap-bbox="false"
     inkscape:object-paths="true"
     fit-margin-top="0"
     fit-margin-left="0"
     fit-margin-right="0"
     fit-margin-bottom="0" />
  <metadata
     id="metadata13">
    <rdf:RDF>
      <cc:Work
         rdf:about="">
        <dc:format>image/svg+xml</dc:format>
        <dc:type
           rdf:resource="http://purl.org/dc/dcmitype/StillImage" />
        <dc:title></dc:title>
      </cc:Work>
    </rdf:RDF>
  </metadata>
  <g
     inkscape:label="Layer 1"
     inkscape:groupmode="layer"
     id="layer1"
     transform="translate(-1.867805,-2.040888)">
    <path
       id="path39"
       style="fill:#000000;fill-opacity:1;fill-rule:evenodd;stroke-width:0.264483"
       d="M 49.867458,98.041224 C 23.357858,98.041034 1.867709,76.550654 1.867805,50.041054 1.867712,23.531458 23.357861,2.041078 49.867458,2.040888 c 26.5098,-10e-5 48.000257,21.49037 48.000167,48.000166 10e-5,26.5098 -21.490367,48.00026 -48.000167,48.00017 z m 0,-8.00003 c 22.0915,8e-5 40.00022,-17.90864 40.00014,-40.00014 8e-5,-22.091506 -17.90864,-40.000216 -40.00014,-40.000146 -22.091299,2.1e-4 -39.999704,17.90885 -39.999624,40.000146 -8e-5,22.0913 17.908325,39.99993 39.999624,40.00014 z"
       sodipodi:nodetypes="cccccccccc" />
    <path
       id="path970-7"
       style="fill:#000000;fill-opacity:1;stroke:none;stroke-width:0.219574;stroke-opacity:1"
       d="m 49.864358,61.835164 a 4.4999999,4.4999999 0 0 1 -4.49688,-4.49999 4.4999999,4.4999999 0 0 1 0,-0.004 V 28.131928 a 4.4999999,4.4999999 0 0 1 4.49998,-4.5005 4.4999999,4.4999999 0 0 1 4.49998,4.5005 4.4999999,4.4999999 0 0 1 0,0.003 v 29.199756 a 4.4999999,4.4999999 0 0 1 -4.49998,4.49999 4.4999999,4.4999999 0 0 1 -0.003,0 z" />
    <path
       id="path970-7-3"
       style="fill:#000000;fill-opacity:1;stroke:none;stroke-width:0.219574;stroke-opacity:1"
       d="m 70.691588,47.011788 a 4.4999999,4.4999999 0 0 0 -3.13469,1.31826 L 49.673238,66.213704 32.178179,48.718658 a 4.4999999,4.4999999 0 0 0 -6.363952,-5.2e-4 4.4999999,4.4999999 0 0 0 0,6.364466 4.4999999,4.4999999 0 0 0 0.0021,0.002 l 20.647311,20.64732 a 4.4999999,4.4999999 0 0 0 6.36189,0.002 4.4999999,4.4999999 0 0 0 0.002,-0.002 4.4999999,4.4999999 0 0 0 0.003,-0.002 4.4999999,4.4999999 0 0 0 5.2e-4,-5.2e-4 4.4999999,4.4999999 0 0 0 0.4408,-0.38654 l 20.64783,-20.64784 a 4.4999999,4.4999999 0 0 0 0.002,-0.002 4.4999999,4.4999999 0 0 0 5.2e-4,-6.364456 4.4999999,4.4999999 0 0 0 -3.22978,-1.31775 z" />
  </g>
</svg>
