<svg width="96mm" height="96mm" version="1.1" viewBox="0 0 96 96" xmlns="http://www.w3.org/2000/svg">
 <g transform="translate(-1.8678 -2.0409)">
  <path d="m49.867 98.041c-26.51-1.9e-4 -48-21.491-48-48-9.3e-5 -26.51 21.49-48 48-48 26.51-1e-4 48 21.49 48 48 1e-4 26.51-21.49 48-48 48zm0-8c22.092 8e-5 40-17.909 40-40 8e-5 -22.092-17.909-40-40-40-22.091 2.1e-4 -40 17.909-40 40-8e-5 22.091 17.908 40 40 40z" style="fill-rule:evenodd;stroke-width:.26448"/>
  <path d="m49.864 61.835a4.5 4.5 0 0 1-4.4969-4.5 4.5 4.5 0 0 1 0-4e-3v-29.199a4.5 4.5 0 0 1 4.5-4.5005 4.5 4.5 0 0 1 4.5 4.5005 4.5 4.5 0 0 1 0 3e-3v29.2a4.5 4.5 0 0 1-4.5 4.5 4.5 4.5 0 0 1-3e-3 0z"/>
  <path d="m70.692 47.012a4.5 4.5 0 0 0-3.1347 1.3183l-17.884 17.884-17.495-17.495a4.5 4.5 0 0 0-6.364-5.2e-4 4.5 4.5 0 0 0 0 6.3645 4.5 4.5 0 0 0 0.0021 2e-3l20.647 20.647a4.5 4.5 0 0 0 6.3619 2e-3 4.5 4.5 0 0 0 2e-3 -2e-3 4.5 4.5 0 0 0 3e-3 -2e-3 4.5 4.5 0 0 0 5.2e-4 -5.2e-4 4.5 4.5 0 0 0 0.4408-0.38654l20.648-20.648a4.5 4.5 0 0 0 2e-3 -2e-3 4.5 4.5 0 0 0 5.2e-4 -6.3645 4.5 4.5 0 0 0-3.2298-1.3178z"/>
  <path d="m47.747 61.306a4.5 4.5 0 0 1-1.6444-6.1455 4.5 4.5 0 0 1 2e-3 -0.0035l14.6-25.287a4.5 4.5 0 0 1 6.1473-1.6476 4.5 4.5 0 0 1 1.6468 6.1475 4.5 4.5 0 0 1-1e-3 0.0026l-14.6 25.288a4.5 4.5 0 0 1-6.1471 1.6471 4.5 4.5 0 0 1-3e-3 -0.0015z"/>
  <path d="m51.981 61.306a4.5 4.5 0 0 0 1.6444-6.1455 4.5 4.5 0 0 0-2e-3 -0.0035l-14.6-25.287a4.5 4.5 0 0 0-6.1473-1.6476 4.5 4.5 0 0 0-1.6468 6.1475 4.5 4.5 0 0 0 1e-3 0.0026l14.6 25.288a4.5 4.5 0 0 0 6.1471 1.6471 4.5 4.5 0 0 0 3e-3 -0.0016z"/>
 </g>
</svg>
